Abduction_states
version=1
nRows=17
nColumns=41
inDegrees=yes

# SIMM Motion File Header:
name Abduction_states
datacolumns 41
datarows 17
otherdata 1
range 0.00000000 1.70370897
endheader
time	/jointset/ground_thorax/thorax_tilt/value	/jointset/ground_thorax/thorax_tilt/speed	/jointset/ground_thorax/thorax_list/value	/jointset/ground_thorax/thorax_list/speed	/jointset/ground_thorax/thorax_rotation/value	/jointset/ground_thorax/thorax_rotation/speed	/jointset/ground_thorax/thorax_tx/value	/jointset/ground_thorax/thorax_tx/speed	/jointset/ground_thorax/thorax_ty/value	/jointset/ground_thorax/thorax_ty/speed	/jointset/ground_thorax/thorax_tz/value	/jointset/ground_thorax/thorax_tz/speed	/jointset/sternoclavicular/sternoclavicular_r2/value	/jointset/sternoclavicular/sternoclavicular_r2/speed	/jointset/sternoclavicular/sternoclavicular_r3/value	/jointset/sternoclavicular/sternoclavicular_r3/speed	/jointset/unrotscap/unrotscap_r3/value	/jointset/unrotscap/unrotscap_r3/speed	/jointset/unrotscap/unrotscap_r2/value	/jointset/unrotscap/unrotscap_r2/speed	/jointset/acromioclavicular/acromioclavicular_r2/value	/jointset/acromioclavicular/acromioclavicular_r2/speed	/jointset/acromioclavicular/acromioclavicular_r3/value	/jointset/acromioclavicular/acromioclavicular_r3/speed	/jointset/acromioclavicular/acromioclavicular_r1/value	/jointset/acromioclavicular/acromioclavicular_r1/speed	/jointset/unrothum/unrothum_r1/value	/jointset/unrothum/unrothum_r1/speed	/jointset/unrothum/unrothum_r3/value	/jointset/unrothum/unrothum_r3/speed	/jointset/unrothum/unrothum_r2/value	/jointset/unrothum/unrothum_r2/speed	/jointset/shoulder0/elv_angle/value	/jointset/shoulder0/elv_angle/speed	/jointset/shoulder1/shoulder_elv/value	/jointset/shoulder1/shoulder_elv/speed	/jointset/shoulder1/shoulder1_r2/value	/jointset/shoulder1/shoulder1_r2/speed	/jointset/shoulder2/shoulder_rot/value	/jointset/shoulder2/shoulder_rot/speed
      0.00000000	      0.00000000	      0.00000000	      0.00000000	      0.00000000	      0.00000000	      0.00000000	      0.00000000	      0.00000000	      0.00000000	      0.00000000	      0.00000000	      0.00000000	      0.00000000	      0.00000000	     -0.00000000	      0.00000000	      0.00000000	      0.00000000	     -0.00000000	      0.00000000	      0.00000000	      0.00000000	     -0.00000000	      0.00000000	     -0.00000000	      0.00000000	      0.00000000	      0.00000000	      0.00000000	      0.00000000	     -0.00000000	      0.00000000	     30.00000000	      0.00000000	     -0.00000000	      0.00000000	    -30.00000000	      0.00000000	      0.00000000	      0.00000000
      0.01000000	     -0.00000000	     -0.00000000	     -0.00000000	     -0.00000000	     -0.00000000	     -0.00000000	      0.00000000	      0.00000000	      0.00000000	     -0.00000000	     -0.00000000	     -0.00000000	     -0.00065188	     -0.13035654	      0.00027611	      0.05521283	     -0.00027611	     -0.05521283	      0.00065188	      0.13035654	     -0.00013199	     -0.02639434	      0.00106670	      0.21330696	      0.00047949	      0.09588217	     -0.00047949	     -0.09588217	     -0.00106670	     -0.21330696	      0.00013199	      0.02639434	     30.00000000	      0.00000000	      0.00269376	      0.53866848	    -30.00000000	     -0.00000000	      0.00000000	      0.00000000
      0.06000000	      0.00000000	      0.00000000	     -0.00000000	     -0.00000000	     -0.00000000	     -0.00000000	      0.00000000	     -0.00000000	     -0.00000000	     -0.00000000	      0.00000000	      0.00000000	     -0.02343108	     -0.78030081	      0.00992429	      0.33049833	     -0.00992429	     -0.33049833	      0.02343108	      0.78030081	     -0.00474428	     -0.15799382	      0.03834110	      1.27683347	      0.01723445	      0.57394077	     -0.01723445	     -0.57394077	     -0.03834110	     -1.27683347	      0.00474428	      0.15799382	     30.00000000	      0.00000000	      0.09682357	      3.22441403	    -30.00000000	     -0.00000000	      0.00000000	      0.00000000
      0.31000000	      0.00000000	     -0.00000000	      0.00000000	      0.00000000	      0.00000000	      0.00000000	     -0.00000000	     -0.00000000	      0.00000000	      0.00000000	      0.00000000	      0.00000000	     -0.62058150	     -3.98418281	      0.26284883	      1.68751046	     -0.26284883	     -1.68751046	      0.62058150	      3.98418281	     -0.12565416	     -0.80670976	      1.01547919	      6.51945753	      0.45646118	      2.93051723	     -0.45646118	     -2.93051723	     -1.01547919	     -6.51945753	      0.12565416	      0.80670976	     30.00000000	     -0.00000000	      2.56441066	     16.46372124	    -30.00000000	      0.00000000	      0.00000000	     -0.00000000
      0.67562936	     -0.00000000	     -0.00000000	      0.00000000	      0.00000000	      0.00000000	      0.00000000	      0.00000000	      0.00000000	     -0.00000000	     -0.00000000	      0.00000000	     -0.00000000	     -2.91377583	     -8.53219308	      1.23413695	      3.61383145	     -1.23413695	     -3.61383145	      2.91377583	      8.53219308	     -0.58997579	     -1.72758224	      4.76791319	     13.96152564	      2.14319239	      6.27575089	     -2.14319239	     -6.27575089	     -4.76791319	    -13.96152564	      0.58997579	      1.72758224	     30.00000000	     -0.00000000	     12.04051001	     35.25733011	    -30.00000000	      0.00000000	     -0.00000000	     -0.00000000
      0.84267002	     -0.00000000	     -0.00000000	      0.00000000	      0.00000000	      0.00000000	      0.00000000	      0.00000000	     -0.00000000	     -0.00000000	     -0.00000000	     -0.00000000	     -0.00000000	     -4.50839925	    -10.55451629	      1.90954363	      4.47039143	     -1.90954363	     -4.47039143	      4.50839925	     10.55451629	     -0.91285211	     -2.13705840	      7.37725121	     17.27072376	      3.31609826	      7.76324614	     -3.31609826	     -7.76324614	     -7.37725121	    -17.27072376	      0.91285211	      2.13705840	     30.00000000	     -0.00000000	     18.62992540	     43.61411672	    -30.00000000	      0.00000000	     -0.00000000	     -0.00000000
      0.95213433	     -0.00000000	     -0.00000000	      0.00000000	     -0.00000000	      0.00000000	      0.00000000	      0.00000000	      0.00000000	     -0.00000000	     -0.00000000	     -0.00000000	     -0.00000000	     -5.73534897	    -11.86019507	      2.42922122	      5.02341490	     -2.42922122	     -5.02341490	      5.73534897	     11.86019507	     -1.16128256	     -2.40142976	      9.38495190	     19.40725157	      4.21856621	      8.72362229	     -4.21856621	     -8.72362229	     -9.38495190	    -19.40725157	      1.16128256	      2.40142976	     30.00000000	     -0.00000000	     23.70001359	     49.00953468	    -30.00000000	      0.00000000	     -0.00000000	     -0.00000000
      1.05921775	     -0.00000000	     -0.00000000	      0.00000000	     -0.00000000	      0.00000000	      0.00000000	      0.00000000	      0.00000000	     -0.00000000	     -0.00000000	     -0.00000000	     -0.00000000	     -7.07307213	    -13.12184684	      2.99581716	      5.55779062	     -2.99581716	     -5.55779062	      7.07307213	     13.12184684	     -1.43214220	     -2.65688661	     11.57391504	     21.47173643	      5.20251221	      9.65161491	     -5.20251221	     -9.65161491	    -11.57391504	    -21.47173643	      1.43214220	      2.65688661	     30.00000000	     -0.00000000	     29.22784758	     54.22302109	    -30.00000000	      0.00000000	     -0.00000000	     -0.00000000
      1.17105236	     -0.00000000	     -0.00000000	      0.00000000	     -0.00000000	      0.00000000	      0.00000000	      0.00000000	     -0.00000000	     -0.00000000	     -0.00000000	     -0.00000000	     -0.00000000	     -8.61340091	    -14.42119955	      3.64822722	      6.10813467	     -3.64822722	     -6.10813467	      8.61340091	     14.42119955	     -1.74402505	     -2.91997708	     14.09440884	     23.59791267	      6.33548232	     10.60733800	     -6.33548232	    -10.60733800	    -14.09440884	    -23.59791267	      1.74402505	      2.91997708	     30.00000000	     -0.00000000	     35.59290282	     59.59229804	    -30.00000000	     -0.00000000	     -0.00000000	     -0.00000000
      1.27255577	     -0.00000000	     -0.00000000	      0.00000000	     -0.00000000	      0.00000000	      0.00000000	      0.00000000	     -0.00000000	     -0.00000000	      0.00000000	     -0.00000000	     -0.00000000	    -10.13608346	    -15.57519338	      4.29316318	      6.59691161	     -4.29316318	     -6.59691161	     10.13608346	     15.57519338	     -2.05233492	     -3.15363556	     16.58602751	     25.48623309	      7.45547296	     11.45614413	     -7.45547296	    -11.45614413	    -16.58602751	    -25.48623309	      2.05233492	      3.15363556	     30.00000000	     -0.00000000	     41.88503908	     64.36091273	    -30.00000000	     -0.00000000	     -0.00000000	     -0.00000000
      1.35466443	     -0.00000000	     -0.00000000	      0.00000000	      0.00000000	      0.00000000	      0.00000000	      0.00000000	     -0.00000000	     -0.00000000	      0.00000000	     -0.00000000	     -0.00000000	    -11.45173273	    -16.45718165	      4.85040967	      6.97047992	     -4.85040967	     -6.97047992	     11.45173273	     16.45718165	     -2.31872508	     -3.33221887	     18.73887037	     26.92946132	      8.42318278	     12.10487988	     -8.42318278	    -12.10487988	    -18.73887037	    -26.92946132	      2.31872508	      3.33221887	     30.00000000	     -0.00000000	     47.32165779	     68.00552690	    -30.00000000	     -0.00000000	     -0.00000000	     -0.00000000
      1.42291920	     -0.00000000	     -0.00000000	      0.00000000	      0.00000000	      0.00000000	      0.00000000	      0.00000000	     -0.00000000	     -0.00000000	      0.00000000	     -0.00000000	     -0.00000000	    -12.59700678	    -17.07052224	      5.33549332	      7.23026184	     -5.33549332	     -7.23026184	     12.59700678	     17.07052224	     -2.55061799	     -3.45640690	     20.61292231	     27.93309195	      9.26557519	     12.55601510	     -9.26557519	    -12.55601510	    -20.61292231	    -27.93309195	      2.55061799	      3.45640690	     30.00000000	     -0.00000000	     52.05424000	     70.54001614	    -30.00000000	     -0.00000000	     -0.00000000	     -0.00000000
      1.48217771	     -0.00000000	     -0.00000000	      0.00000000	      0.00000000	      0.00000000	      0.00000000	     -0.00000000	     -0.00000000	     -0.00000000	      0.00000000	     -0.00000000	     -0.00000000	    -13.61875680	    -17.35492540	      5.76825807	      7.35072150	     -5.76825807	     -7.35072150	     13.61875680	     17.35492540	     -2.75750000	     -3.51399231	     22.28484757	     28.39847077	     10.01711099	     12.76520438	    -10.01711099	    -12.76520438	    -22.28484757	    -28.39847077	      2.75750000	      3.51399231	     30.00000000	     -0.00000000	     56.27638751	     71.71524693	    -30.00000000	     -0.00000000	     -0.00000000	     -0.00000000
      1.54143623	     -0.00000000	     -0.00000000	      0.00000000	      0.00000000	      0.00000000	      0.00000000	     -0.00000000	     -0.00000000	     -0.00000000	      0.00000000	     -0.00000000	     -0.00000000	    -14.64352263	    -17.10704712	      6.20230016	      7.24573204	     -6.20230016	     -7.24573204	     14.64352263	     17.10704712	     -2.96499263	     -3.46380239	     23.96170770	     27.99285889	     10.77086504	     12.58288053	    -10.77086504	    -12.58288053	    -23.96170770	    -27.99285889	      2.96499263	      3.46380239	     30.00000000	     -0.00000000	     60.51099716	     70.69094684	    -30.00000000	     -0.00000000	     -0.00000000	     -0.00000000
      1.60069475	     -0.00000000	     -0.00000000	      0.00000000	      0.00000000	      0.00000000	      0.00000000	     -0.00000000	     -0.00000000	     -0.00000000	      0.00000000	     -0.00000000	     -0.00000000	    -15.62618362	    -15.83944103	      6.61850865	      6.70883435	     -6.61850865	     -6.70883435	     15.62618362	     15.83944103	     -3.16395996	     -3.20713992	     25.56967021	     25.91863076	     11.49364939	     11.65050828	    -11.49364939	    -11.65050828	    -25.56967021	    -25.91863076	      3.16395996	      3.20713992	     30.00000000	     -0.00000000	     64.57161822	     65.45285553	    -30.00000000	     -0.00000000	     -0.00000000	     -0.00000000
      1.65220186	     -0.00000000	     -0.00000000	      0.00000000	     -0.00000000	      0.00000000	      0.00000000	     -0.00000000	     -0.00000000	     -0.00000000	     -0.00000000	     -0.00000000	     -0.00000000	    -16.38676693	    -13.46891983	      6.94065559	      5.70479425	     -6.94065559	     -5.70479425	     16.38676693	     13.46891983	     -3.31796143	     -2.72716129	     26.81423925	     22.03966410	     12.05308719	      9.90690023	    -12.05308719	     -9.90690023	    -26.81423925	    -22.03966410	      3.31796143	      2.72716129	     30.00000000	     -0.00000000	     67.71455422	     55.65722060	    -30.00000000	      0.00000000	     -0.00000000	     -0.00000000
      1.70370897	     -0.00000000	     -0.00000000	      0.00000000	      0.00000000	      0.00000000	      0.00000000	     -0.00000000	     -0.00000000	     -0.00000000	      0.00000000	     -0.00000000	     -0.00000000	    -16.98935242	     -9.69809648	      7.19588216	      4.10765271	     -7.19588216	     -4.10765271	     16.98935242	      9.69809648	     -3.43997179	     -1.96365215	     27.80027094	     15.86933411	     12.49631162	      7.13331696	    -12.49631162	     -7.13331696	    -27.80027094	    -15.86933411	      3.43997179	      1.96365215	     30.00000000	     -0.00000000	     70.20460048	     40.07515838	    -30.00000000	      0.00000000	     -0.00000000	     -0.00000000
